<svg xmlns="http://www.w3.org/2000/svg" xmlns:xlink="http://www.w3.org/1999/xlink" width="500" zoomAndPan="magnify" viewBox="0 0 375 374.999991" height="500" preserveAspectRatio="xMidYMid meet" version="1.0"><defs><clipPath id="8cbc0ecbbf"><path d="M 2 37.5 L 373 37.5 L 373 360.710938 L 2 360.710938 Z M 2 37.5 " clip-rule="nonzero"/></clipPath></defs><rect x="-37.5" width="450" fill="#ffffff" y="-37.499999" height="449.999989" fill-opacity="1"/><rect x="-37.5" width="450" fill="#ffffff" y="-37.499999" height="449.999989" fill-opacity="1"/><g clip-path="url(#8cbc0ecbbf)"><path fill="#d59a57" d="M 337.226562 224.261719 L 190.101562 358.023438 L 187.507812 360.390625 L 184.898438 358.023438 L 37.773438 224.261719 C -4.828125 185.53125 -9.1875 118.214844 28.058594 73.894531 C 48.3125 49.789062 76.703125 37.460938 105.238281 37.460938 C 129.167969 37.460938 153.199219 46.15625 172.628906 63.789062 L 187.492188 77.308594 L 202.359375 63.789062 C 221.800781 46.15625 245.832031 37.460938 269.742188 37.460938 C 298.304688 37.460938 326.667969 49.789062 346.921875 73.894531 C 384.171875 118.214844 379.828125 185.53125 337.226562 224.261719 Z M 337.226562 224.261719 " fill-opacity="1" fill-rule="nonzero"/></g></svg>